<?xml version="1.0" encoding="UTF-8" standalone="no"?>
<!-- Created with Inkscape (http://www.inkscape.org/) -->

<svg
   width="82.819908mm"
   height="97.136833mm"
   viewBox="0 0 82.819908 97.136833"
   version="1.1"
   id="svg5"
   inkscape:version="1.1 (c68e22c387, 2021-05-23)"
   sodipodi:docname="logo.svg"
   xmlns:inkscape="http://www.inkscape.org/namespaces/inkscape"
   xmlns:sodipodi="http://sodipodi.sourceforge.net/DTD/sodipodi-0.dtd"
   xmlns="http://www.w3.org/2000/svg"
   xmlns:svg="http://www.w3.org/2000/svg">
  <sodipodi:namedview
     id="namedview7"
     pagecolor="#ffffff"
     bordercolor="#666666"
     borderopacity="1.0"
     inkscape:pageshadow="2"
     inkscape:pageopacity="0.0"
     inkscape:pagecheckerboard="0"
     inkscape:document-units="mm"
     showgrid="false"
     fit-margin-top="0"
     fit-margin-left="0"
     fit-margin-right="0"
     fit-margin-bottom="0"
     inkscape:zoom="0.77771465"
     inkscape:cx="458.39435"
     inkscape:cy="163.29897"
     inkscape:window-width="3436"
     inkscape:window-height="1401"
     inkscape:window-x="0"
     inkscape:window-y="18"
     inkscape:window-maximized="1"
     inkscape:current-layer="layer1" />
  <defs
     id="defs2" />
  <g
     inkscape:label="Layer 1"
     inkscape:groupmode="layer"
     id="layer1"
     transform="translate(-63.52426,-71.538757)">
    <g
       id="g350">
      <path
         style="fill:#2b77c5;stroke:none;stroke-width:0.481143"
         d="m 144.74472,107.47669 c -9.4968,3.47689 -18.85889,11.11633 -27.42516,16.51236 -2.83634,1.78648 -7.68121,6.14997 -11.06629,6.32174 -1.93064,0.0982 -4.19264,-1.77927 -5.77372,-2.72279 l -13.472014,-7.9865 c -3.33394,-2.0004 -10.09203,-4.36233 -12.01521,-7.84465 -1.00284,-1.81584 -0.49451,-4.67585 -0.49451,-6.68587 7.10128,5.41844 15.06767,10.10121 22.61373,14.88993 2.32146,1.47327 5.721034,4.67191 8.660574,4.13351 3.58144,-0.65628 7.4914,-4.0801 10.58515,-5.93644 L 138.971,104.58983 c 2.69729,-1.61861 9.94331,-4.856991 6.10186,-8.892631 -2.34846,-2.46725 -6.13746,-4.04165 -8.98872,-5.87466 -6.69751,-4.30561 -13.44121,-8.554534 -20.20801,-12.750295 -2.83923,-1.760335 -7.04928,-5.767409 -10.58515,-5.52277 -4.82914,0.334112 -11.174124,5.613802 -15.396584,7.909913 -6.10181,3.318062 -12.23326,6.600182 -18.28344,10.010812 -2.39966,1.35273 -5.73115,2.43016 -7.0642,5.03492 -1.46214,2.85708 -0.63409,7.440451 -0.63409,10.565861 0,2.56295 -0.4825,5.77833 0.75661,8.1293 1.54357,2.92867 6.55806,4.80589 9.34739,6.37187 7.44406,4.17921 14.81089,8.53163 22.13259,12.92399 2.73708,1.64214 7.231494,5.47637 10.585154,5.05296 2.38575,-0.30167 4.7536,-2.34461 6.736,-3.58548 4.46886,-2.79736 8.97669,-5.54036 13.47201,-8.29442 4.01466,-2.45961 8.02643,-4.92354 12.02858,-7.40316 1.66091,-1.02921 4.23166,-2.00002 5.27911,-3.73035 1.09556,-1.80963 0.49461,-5.01448 0.49461,-7.059 m 1.44343,27.90631 c -10.219,3.74137 -20.09542,11.97469 -29.34973,17.70992 -2.9191,1.80909 -7.95412,6.50361 -11.54744,6.16152 -5.510244,-0.52445 -13.065644,-7.55155 -17.802304,-10.39943 -3.42963,-2.06218 -10.48257,-4.74263 -12.49635,-8.26845 -1.01569,-1.7783 -0.49451,-4.66564 -0.49451,-6.64699 7.03696,4.6565 14.4174,8.84052 21.65144,13.18332 2.75695,1.65465 6.328244,4.94278 9.622864,5.22281 3.79834,0.32285 8.9305,-4.39909 12.02858,-6.27988 6.56953,-3.9882 13.13714,-7.98024 19.72687,-11.9338 2.41823,-1.45112 6.72494,-3.05092 8.16597,-5.57404 1.07391,-1.88079 0.49461,-5.02939 0.49461,-7.12814 -9.97217,5.53123 -19.56905,11.83805 -29.34973,17.70607 -2.66602,1.59981 -7.87151,6.30202 -11.0663,5.88246 -3.13796,-0.41186 -6.979224,-3.79333 -9.622864,-5.45857 -6.65859,-4.19412 -13.4505,-8.22707 -20.20801,-12.25953 -2.15389,-1.28561 -8.3801,-6.37418 -10.91334,-5.20067 -1.61647,0.74914 -1.11515,3.69085 -1.11524,5.10396 -2.9e-4,4.36445 -1.6886,12.92207 1.97692,15.99272 2.2885,1.91736 8.98607,3.92709 9.51225,7.12285 0.60917,3.69999 -3.37527,9.94234 -4.58761,13.45131 -0.36326,1.0513 -1.73322,3.91362 -0.34931,4.72868 1.4212,0.83671 3.58769,-1.53052 4.51404,-2.32344 2.66245,-2.27821 8.45734,-9.18166 12.02858,-9.2851 6.0332,-0.17514 11.16955,8.5961 17.321154,9.16193 3.83269,0.35268 8.8973,-4.12196 12.02858,-6.04027 6.87121,-4.20953 13.7785,-8.35842 20.68916,-12.50443 2.48703,-1.49251 7.04634,-3.16496 8.64711,-5.64333 1.05562,-1.63397 0.49461,-4.61224 0.49461,-6.48148 z"
         id="path329" />
    </g>
  </g>
</svg>
